<svg xmlns="http://www.w3.org/2000/svg" width="1em" height=".634em" viewBox="0 0 217.8 137.999" style="font-size: 45px;"><g data-name="Group 1242"><path data-name="Path 1618" d="M217.799.001v38.604h-19.254V19.253h-19.253V.001z" fill="#1072f8"></path><path data-name="Path 1617" d="M179.291 76.848c0 2.156-.161 17.52-.516 19.646l-.007.042a49.694 49.694 0 01-57.244 40.768 49.528 49.528 0 01-31.786-19.554 49.691 49.691 0 01-48.277 19.554A49.7 49.7 0 01.695 80.058a49.694 49.694 0 0149-41.454h30.371v19.524h-8.323v.007H49.695A30.159 30.159 0 0019.544 88.3a30.159 30.159 0 0030.165 30.151 30.157 30.157 0 0029.053-22.1H50.826V76.843h30.579A49.694 49.694 0 01129.757 38.6h30.278v19.524h-8.23v.007h-22.048a30.158 30.158 0 00-30.151 30.165 30.159 30.159 0 0030.165 30.151 30.157 30.157 0 0029.053-22.1h-25.641V76.839z"></path></g></svg>