<svg xmlns="http://www.w3.org/2000/svg" xmlns:xlink="http://www.w3.org/1999/xlink" width="235.26" height="223.97" viewBox="0 0 235.26 223.97"><defs><style>.a{fill:#e0e0e0;}.b,.l,.m,.n,.o{opacity:0.5;}.c{fill:url(#a);}.d{fill:#fafafa;}.e{fill:url(#b);}.f{fill:url(#c);}.g{fill:#126fed;}.h{fill:url(#d);}.i{fill:#fff;}.j{fill:url(#f);}.k,.o{fill:#47e6b1;}.l{fill:#4d8af0;}.m{fill:#fdd835;}.n{fill:#f55f44;}</style><linearGradient id="a" x1="0.509" y1="0.997" x2="0.509" y2="-0.003" gradientUnits="objectBoundingBox"><stop offset="0" stop-color="gray" stop-opacity="0.251"/><stop offset="0.54" stop-color="gray" stop-opacity="0.122"/><stop offset="1" stop-color="gray" stop-opacity="0.102"/></linearGradient><linearGradient id="b" x1="0.813" y1="0.841" x2="0.813" y2="-0.159" xlink:href="#a"/><linearGradient id="c" x1="1.78" y1="0.849" x2="1.78" y2="-0.151" xlink:href="#a"/><linearGradient id="d" x1="0.5" y1="1" x2="0.5" y2="0" xlink:href="#a"/><linearGradient id="f" x1="0.5" y1="0.999" x2="0.5" y2="-0.001" xlink:href="#a"/></defs><rect class="a" width="125.356" height="173.202" transform="matrix(0.978, -0.21, 0.21, 0.978, 19.827, 38.864)"/><g class="b" transform="translate(22.514 15.874)"><rect class="c" width="121.12" height="167.347" transform="matrix(0.978, -0.21, 0.21, 0.978, 0, 25.41)"/></g><rect class="d" width="118.036" height="163.65" transform="matrix(0.978, -0.21, 0.21, 0.978, 24.278, 42.164)"/><rect class="e" width="58.556" height="14.184" transform="matrix(0.978, -0.21, 0.21, 0.978, 52.019, 28.956)"/><path class="f" d="M444.925,91.453a8.382,8.382,0,1,0,9.753,6.477A8.284,8.284,0,0,0,444.925,91.453Zm2.774,12.937a4.836,4.836,0,1,1,3.6-5.737,4.779,4.779,0,0,1-3.6,5.737Z" transform="translate(-367.187 -82.185)"/><rect class="g" width="57.323" height="13.559" transform="matrix(0.978, -0.21, 0.21, 0.978, 52.495, 28.232)"/><path class="g" d="M445.187,91.452a8.012,8.012,0,1,0,9.515,6.153A8.012,8.012,0,0,0,445.187,91.452Zm2.65,12.363a4.624,4.624,0,1,1,3.551-5.49A4.624,4.624,0,0,1,447.838,103.815Z" transform="translate(-367.45 -82.184)"/><rect class="a" width="125.356" height="173.202" transform="translate(73.974 33.535)"/><g class="b" transform="translate(76.094 36.464)"><rect class="h" width="121.12" height="167.347"/></g><rect class="i" width="118.036" height="163.65" transform="translate(77.634 37.697)"/><rect class="h" width="58.556" height="14.184" transform="translate(107.529 30.6)"/><path class="j" d="M646.506,118a8.384,8.384,0,1,0,8.187,8.382A8.286,8.286,0,0,0,646.506,118Zm0,13.218a4.836,4.836,0,1,1,4.721-4.836,4.779,4.779,0,0,1-4.721,4.813Z" transform="translate(-509.7 -101.245)"/><rect class="g" width="57.323" height="13.559" transform="translate(108.146 29.992)"/><path class="g" d="M646.941,118a8.012,8.012,0,1,0,8.012,8.012A8.012,8.012,0,0,0,646.941,118Zm0,12.635a4.628,4.628,0,1,0,0-.014Z" transform="translate(-510.134 -101.245)"/><g class="b" transform="translate(1.862 211.418)"><rect class="k" width="1.079" height="6.118" transform="translate(2.519)"/><rect class="k" width="1.079" height="6.118" transform="translate(6.118 2.521) rotate(90)"/></g><g class="b" transform="translate(126.988)"><rect class="k" width="1.079" height="6.118" transform="translate(2.518)"/><rect class="k" width="1.079" height="6.118" transform="translate(6.118 2.518) rotate(90)"/></g><path class="l" d="M950.011,826.067a1.322,1.322,0,0,1-.737-1.6.635.635,0,0,0,.029-.146h0a.663.663,0,0,0-1.19-.439h0a.633.633,0,0,0-.074.129,1.322,1.322,0,0,1-1.6.737.633.633,0,0,0-.146-.029h0a.663.663,0,0,0-.439,1.19h0a.637.637,0,0,0,.129.075,1.323,1.323,0,0,1,.737,1.6.633.633,0,0,0-.029.146h0a.663.663,0,0,0,1.19.439h0a.635.635,0,0,0,.075-.129,1.322,1.322,0,0,1,1.6-.737.633.633,0,0,0,.146.029h0a.663.663,0,0,0,.439-1.191h0A.632.632,0,0,0,950.011,826.067Z" transform="translate(-728.832 -604.464)"/><path class="m" d="M315.6,621.007a1.322,1.322,0,0,1-.737-1.6.637.637,0,0,0,.029-.146h0a.663.663,0,0,0-1.19-.439h0a.64.64,0,0,0-.075.129,1.322,1.322,0,0,1-1.6.737.643.643,0,0,0-.146-.029h0a.663.663,0,0,0-.439,1.19h0a.632.632,0,0,0,.129.075,1.322,1.322,0,0,1,.737,1.6.637.637,0,0,0-.029.146h0a.663.663,0,0,0,1.19.439h0a.638.638,0,0,0,.075-.129,1.322,1.322,0,0,1,1.6-.737.636.636,0,0,0,.146.029h0a.663.663,0,0,0,.439-1.19h0A.635.635,0,0,0,315.6,621.007Z" transform="translate(-276.398 -458.224)"/><path class="m" d="M844.011,121.687a1.322,1.322,0,0,1-.737-1.6.639.639,0,0,0,.029-.146h0a.663.663,0,0,0-1.19-.439h0a.633.633,0,0,0-.075.129,1.322,1.322,0,0,1-1.6.737.638.638,0,0,0-.146-.029h0a.663.663,0,0,0-.439,1.19h0a.635.635,0,0,0,.129.075,1.322,1.322,0,0,1,.737,1.6.642.642,0,0,0-.029.146h0a.663.663,0,0,0,1.19.439h0a.636.636,0,0,0,.075-.129,1.322,1.322,0,0,1,1.6-.737.638.638,0,0,0,.146.029h0a.663.663,0,0,0,.439-1.19h0A.639.639,0,0,0,844.011,121.687Z" transform="translate(-653.237 -102.13)"/><circle class="n" cx="2.16" cy="2.16" r="2.16" transform="translate(230.94 88.044)"/><circle class="n" cx="2.16" cy="2.16" r="2.16" transform="translate(64.023 212.012)"/><circle class="n" cx="2.16" cy="2.16" r="2.16" transform="translate(208.759 134.73)"/><circle class="l" cx="2.16" cy="2.16" r="2.16" transform="translate(22.836 25.477)"/><circle class="o" cx="2.16" cy="2.16" r="2.16" transform="translate(0 84.398)"/></svg>